# xmcd CD database file
#
# Track frame offsets:
#	182
#	17877
#	32802
#	54975
#	71837
#	94200
#	112862
#	131875
#	149747
#	166322
#
# Disc length: 2484 seconds
#
# Revision: 1
# Processed by: cddbd v1.4PL0 Copyright (c) Steve Scherf et al.
# Submitted via: CDex 1.50Beta7
#
DISCID=9109b20a
DTITLE=Finis Tasby - People Don't Care
DYEAR=1995
DGENRE=Blues
TTITLE0=People Don't Care
TTITLE1=Rocking With the Blues
TTITLE2=Just a Kiss
TTITLE3=Gotta Draw the Line
TTITLE4=Po' Man Blues
TTITLE5=Drinking Bad Wiskey
TTITLE6=Gonna Miss Your Love
TTITLE7=Find Something Else To Do
TTITLE8=You Don't Have to Worry
TTITLE9=Break Away
EXTD=YEAR: 1995
EXTT0=
EXTT1=
EXTT2=
EXTT3=
EXTT4=
EXTT5=
EXTT6=
EXTT7=
EXTT8=
EXTT9=
PLAYORDER=
